<mxfile host="app.diagrams.net" agent="Mozilla/5.0 (Windows NT 10.0; Win64; x64) AppleWebKit/537.36 (KHTML, like Gecko) Chrome/138.0.0.0 Safari/537.36" version="28.0.9">
  <diagram name="第 1 页" id="0eOxjGKmXJKuqW_fPI9L">
    <mxGraphModel dx="1426" dy="785" grid="1" gridSize="10" guides="1" tooltips="1" connect="1" arrows="1" fold="1" page="1" pageScale="1" pageWidth="827" pageHeight="1169" math="0" shadow="0">
      <root>
        <mxCell id="0" />
        <mxCell id="1" parent="0" />
        <mxCell id="YOQmVQ1goA5KGb7JhRat-7" value="" style="edgeStyle=orthogonalEdgeStyle;rounded=0;orthogonalLoop=1;jettySize=auto;html=1;" edge="1" parent="1" source="YOQmVQ1goA5KGb7JhRat-3" target="YOQmVQ1goA5KGb7JhRat-4">
          <mxGeometry relative="1" as="geometry" />
        </mxCell>
        <mxCell id="YOQmVQ1goA5KGb7JhRat-3" value="4" style="ellipse;whiteSpace=wrap;html=1;aspect=fixed;" vertex="1" parent="1">
          <mxGeometry x="250" y="60" width="40" height="40" as="geometry" />
        </mxCell>
        <mxCell id="YOQmVQ1goA5KGb7JhRat-8" value="" style="edgeStyle=orthogonalEdgeStyle;rounded=0;orthogonalLoop=1;jettySize=auto;html=1;" edge="1" parent="1" source="YOQmVQ1goA5KGb7JhRat-4" target="YOQmVQ1goA5KGb7JhRat-5">
          <mxGeometry relative="1" as="geometry" />
        </mxCell>
        <mxCell id="YOQmVQ1goA5KGb7JhRat-4" value="2" style="ellipse;whiteSpace=wrap;html=1;aspect=fixed;" vertex="1" parent="1">
          <mxGeometry x="330" y="60" width="40" height="40" as="geometry" />
        </mxCell>
        <mxCell id="YOQmVQ1goA5KGb7JhRat-9" value="" style="edgeStyle=orthogonalEdgeStyle;rounded=0;orthogonalLoop=1;jettySize=auto;html=1;" edge="1" parent="1" source="YOQmVQ1goA5KGb7JhRat-5" target="YOQmVQ1goA5KGb7JhRat-6">
          <mxGeometry relative="1" as="geometry" />
        </mxCell>
        <mxCell id="YOQmVQ1goA5KGb7JhRat-5" value="1" style="ellipse;whiteSpace=wrap;html=1;aspect=fixed;fontStyle=1" vertex="1" parent="1">
          <mxGeometry x="410" y="60" width="40" height="40" as="geometry" />
        </mxCell>
        <mxCell id="YOQmVQ1goA5KGb7JhRat-6" value="3" style="ellipse;whiteSpace=wrap;html=1;aspect=fixed;" vertex="1" parent="1">
          <mxGeometry x="490" y="60" width="40" height="40" as="geometry" />
        </mxCell>
        <mxCell id="YOQmVQ1goA5KGb7JhRat-10" value="" style="shape=flexArrow;endArrow=classic;html=1;rounded=0;fillColor=#d5e8d4;strokeColor=#82b366;" edge="1" parent="1">
          <mxGeometry width="50" height="50" relative="1" as="geometry">
            <mxPoint x="380" y="120" as="sourcePoint" />
            <mxPoint x="380" y="170" as="targetPoint" />
          </mxGeometry>
        </mxCell>
        <mxCell id="YOQmVQ1goA5KGb7JhRat-11" value="" style="edgeStyle=orthogonalEdgeStyle;rounded=0;orthogonalLoop=1;jettySize=auto;html=1;" edge="1" parent="1" source="YOQmVQ1goA5KGb7JhRat-12" target="YOQmVQ1goA5KGb7JhRat-14">
          <mxGeometry relative="1" as="geometry" />
        </mxCell>
        <mxCell id="YOQmVQ1goA5KGb7JhRat-12" value="4" style="ellipse;whiteSpace=wrap;html=1;aspect=fixed;" vertex="1" parent="1">
          <mxGeometry x="250" y="210" width="40" height="40" as="geometry" />
        </mxCell>
        <mxCell id="YOQmVQ1goA5KGb7JhRat-14" value="2" style="ellipse;whiteSpace=wrap;html=1;aspect=fixed;" vertex="1" parent="1">
          <mxGeometry x="330" y="210" width="40" height="40" as="geometry" />
        </mxCell>
        <mxCell id="YOQmVQ1goA5KGb7JhRat-15" value="" style="edgeStyle=orthogonalEdgeStyle;rounded=0;orthogonalLoop=1;jettySize=auto;html=1;" edge="1" parent="1" source="YOQmVQ1goA5KGb7JhRat-16" target="YOQmVQ1goA5KGb7JhRat-17">
          <mxGeometry relative="1" as="geometry" />
        </mxCell>
        <mxCell id="YOQmVQ1goA5KGb7JhRat-16" value="1" style="ellipse;whiteSpace=wrap;html=1;aspect=fixed;fontStyle=1" vertex="1" parent="1">
          <mxGeometry x="410" y="210" width="40" height="40" as="geometry" />
        </mxCell>
        <mxCell id="YOQmVQ1goA5KGb7JhRat-17" value="3" style="ellipse;whiteSpace=wrap;html=1;aspect=fixed;" vertex="1" parent="1">
          <mxGeometry x="490" y="210" width="40" height="40" as="geometry" />
        </mxCell>
        <mxCell id="YOQmVQ1goA5KGb7JhRat-18" value="" style="shape=flexArrow;endArrow=classic;html=1;rounded=0;fillColor=#d5e8d4;strokeColor=#82b366;" edge="1" parent="1">
          <mxGeometry width="50" height="50" relative="1" as="geometry">
            <mxPoint x="310" y="270" as="sourcePoint" />
            <mxPoint x="310" y="320" as="targetPoint" />
          </mxGeometry>
        </mxCell>
        <mxCell id="YOQmVQ1goA5KGb7JhRat-20" value="4" style="ellipse;whiteSpace=wrap;html=1;aspect=fixed;" vertex="1" parent="1">
          <mxGeometry x="250" y="370" width="40" height="40" as="geometry" />
        </mxCell>
        <mxCell id="YOQmVQ1goA5KGb7JhRat-22" value="2" style="ellipse;whiteSpace=wrap;html=1;aspect=fixed;" vertex="1" parent="1">
          <mxGeometry x="330" y="370" width="40" height="40" as="geometry" />
        </mxCell>
        <mxCell id="YOQmVQ1goA5KGb7JhRat-24" value="1" style="ellipse;whiteSpace=wrap;html=1;aspect=fixed;fontStyle=1" vertex="1" parent="1">
          <mxGeometry x="410" y="370" width="40" height="40" as="geometry" />
        </mxCell>
        <mxCell id="YOQmVQ1goA5KGb7JhRat-25" value="3" style="ellipse;whiteSpace=wrap;html=1;aspect=fixed;" vertex="1" parent="1">
          <mxGeometry x="490" y="370" width="40" height="40" as="geometry" />
        </mxCell>
        <mxCell id="YOQmVQ1goA5KGb7JhRat-26" value="" style="shape=flexArrow;endArrow=classic;html=1;rounded=0;fillColor=#d5e8d4;strokeColor=#82b366;" edge="1" parent="1">
          <mxGeometry width="50" height="50" relative="1" as="geometry">
            <mxPoint x="470" y="270" as="sourcePoint" />
            <mxPoint x="470" y="320" as="targetPoint" />
          </mxGeometry>
        </mxCell>
        <mxCell id="YOQmVQ1goA5KGb7JhRat-27" value="" style="shape=flexArrow;endArrow=classic;html=1;rounded=0;fillColor=#d5e8d4;strokeColor=#82b366;" edge="1" parent="1">
          <mxGeometry width="50" height="50" relative="1" as="geometry">
            <mxPoint x="300" y="440" as="sourcePoint" />
            <mxPoint x="300" y="490" as="targetPoint" />
          </mxGeometry>
        </mxCell>
        <mxCell id="YOQmVQ1goA5KGb7JhRat-28" value="" style="shape=flexArrow;endArrow=classic;html=1;rounded=0;fillColor=#d5e8d4;strokeColor=#82b366;" edge="1" parent="1">
          <mxGeometry width="50" height="50" relative="1" as="geometry">
            <mxPoint x="470" y="440" as="sourcePoint" />
            <mxPoint x="470" y="490" as="targetPoint" />
          </mxGeometry>
        </mxCell>
        <mxCell id="YOQmVQ1goA5KGb7JhRat-31" value="" style="edgeStyle=orthogonalEdgeStyle;rounded=0;orthogonalLoop=1;jettySize=auto;html=1;" edge="1" parent="1" source="YOQmVQ1goA5KGb7JhRat-29" target="YOQmVQ1goA5KGb7JhRat-30">
          <mxGeometry relative="1" as="geometry" />
        </mxCell>
        <mxCell id="YOQmVQ1goA5KGb7JhRat-29" value="2" style="ellipse;whiteSpace=wrap;html=1;aspect=fixed;" vertex="1" parent="1">
          <mxGeometry x="240" y="520" width="40" height="40" as="geometry" />
        </mxCell>
        <mxCell id="YOQmVQ1goA5KGb7JhRat-30" value="4" style="ellipse;whiteSpace=wrap;html=1;aspect=fixed;" vertex="1" parent="1">
          <mxGeometry x="320" y="520" width="40" height="40" as="geometry" />
        </mxCell>
        <mxCell id="YOQmVQ1goA5KGb7JhRat-34" value="" style="edgeStyle=orthogonalEdgeStyle;rounded=0;orthogonalLoop=1;jettySize=auto;html=1;" edge="1" parent="1" source="YOQmVQ1goA5KGb7JhRat-32" target="YOQmVQ1goA5KGb7JhRat-33">
          <mxGeometry relative="1" as="geometry" />
        </mxCell>
        <mxCell id="YOQmVQ1goA5KGb7JhRat-32" value="1" style="ellipse;whiteSpace=wrap;html=1;aspect=fixed;fontStyle=0" vertex="1" parent="1">
          <mxGeometry x="400" y="520" width="40" height="40" as="geometry" />
        </mxCell>
        <mxCell id="YOQmVQ1goA5KGb7JhRat-33" value="3" style="ellipse;whiteSpace=wrap;html=1;aspect=fixed;fontStyle=0" vertex="1" parent="1">
          <mxGeometry x="480" y="520" width="40" height="40" as="geometry" />
        </mxCell>
        <mxCell id="YOQmVQ1goA5KGb7JhRat-35" value="" style="shape=flexArrow;endArrow=classic;html=1;rounded=0;fillColor=#d5e8d4;strokeColor=#82b366;" edge="1" parent="1">
          <mxGeometry width="50" height="50" relative="1" as="geometry">
            <mxPoint x="380" y="590" as="sourcePoint" />
            <mxPoint x="380" y="640" as="targetPoint" />
          </mxGeometry>
        </mxCell>
        <mxCell id="YOQmVQ1goA5KGb7JhRat-36" value="" style="edgeStyle=orthogonalEdgeStyle;rounded=0;orthogonalLoop=1;jettySize=auto;html=1;" edge="1" parent="1" source="YOQmVQ1goA5KGb7JhRat-37" target="YOQmVQ1goA5KGb7JhRat-39">
          <mxGeometry relative="1" as="geometry" />
        </mxCell>
        <mxCell id="YOQmVQ1goA5KGb7JhRat-37" value="1" style="ellipse;whiteSpace=wrap;html=1;aspect=fixed;" vertex="1" parent="1">
          <mxGeometry x="240" y="680" width="40" height="40" as="geometry" />
        </mxCell>
        <mxCell id="YOQmVQ1goA5KGb7JhRat-38" value="" style="edgeStyle=orthogonalEdgeStyle;rounded=0;orthogonalLoop=1;jettySize=auto;html=1;" edge="1" parent="1" source="YOQmVQ1goA5KGb7JhRat-39" target="YOQmVQ1goA5KGb7JhRat-41">
          <mxGeometry relative="1" as="geometry" />
        </mxCell>
        <mxCell id="YOQmVQ1goA5KGb7JhRat-39" value="2" style="ellipse;whiteSpace=wrap;html=1;aspect=fixed;" vertex="1" parent="1">
          <mxGeometry x="320" y="680" width="40" height="40" as="geometry" />
        </mxCell>
        <mxCell id="YOQmVQ1goA5KGb7JhRat-40" value="" style="edgeStyle=orthogonalEdgeStyle;rounded=0;orthogonalLoop=1;jettySize=auto;html=1;" edge="1" parent="1" source="YOQmVQ1goA5KGb7JhRat-41" target="YOQmVQ1goA5KGb7JhRat-42">
          <mxGeometry relative="1" as="geometry" />
        </mxCell>
        <mxCell id="YOQmVQ1goA5KGb7JhRat-41" value="3" style="ellipse;whiteSpace=wrap;html=1;aspect=fixed;fontStyle=1" vertex="1" parent="1">
          <mxGeometry x="400" y="680" width="40" height="40" as="geometry" />
        </mxCell>
        <mxCell id="YOQmVQ1goA5KGb7JhRat-42" value="4" style="ellipse;whiteSpace=wrap;html=1;aspect=fixed;" vertex="1" parent="1">
          <mxGeometry x="480" y="680" width="40" height="40" as="geometry" />
        </mxCell>
        <mxCell id="YOQmVQ1goA5KGb7JhRat-43" value="递归分治法" style="text;html=1;align=center;verticalAlign=middle;resizable=0;points=[];autosize=1;strokeColor=none;fillColor=none;" vertex="1" parent="1">
          <mxGeometry x="720" y="50" width="80" height="30" as="geometry" />
        </mxCell>
      </root>
    </mxGraphModel>
  </diagram>
</mxfile>
